<?xml version="1.0" standalone="no"?>
<!DOCTYPE svg PUBLIC "-//W3C//DTD SVG 20010904//EN"
 "http://www.w3.org/TR/2001/REC-SVG-20010904/DTD/svg10.dtd">
<svg version="1.0" xmlns="http://www.w3.org/2000/svg"
 width="448.000000pt" height="448.000000pt" viewBox="0 0 448.000000 448.000000"
 preserveAspectRatio="xMidYMid meet">
<metadata>
Created by potrace 1.14, written by Peter Selinger 2001-2017
</metadata>
<g transform="translate(0.000000,448.000000) scale(0.100000,-0.100000)"
fill="#000000" stroke="none">
<path d="M1525 3898 c-20 -39 -78 -168 -130 -287 -200 -465 -343 -798 -358
-831 -9 -19 -61 -138 -115 -265 -93 -214 -208 -482 -290 -670 -19 -44 -46
-109 -62 -145 -40 -97 -209 -488 -235 -545 -120 -267 -235 -548 -235 -574 0
-25 7 -36 33 -51 30 -19 46 -21 254 -18 l222 3 30 29 c19 19 48 73 81 155 29
69 63 151 76 181 55 128 272 650 346 829 69 170 112 273 238 576 156 373 165
391 194 353 7 -10 35 -71 61 -135 26 -65 54 -131 61 -148 18 -41 229 -566 323
-805 249 -627 366 -920 383 -957 37 -78 37 -78 344 -78 253 0 273 1 293 19 35
32 27 78 -39 221 -11 24 -154 354 -238 550 -136 316 -233 541 -242 560 -10 22
-128 294 -195 450 -24 55 -75 174 -115 265 -40 91 -94 217 -120 280 -26 63
-83 194 -125 290 -42 96 -117 270 -167 385 -49 116 -114 261 -143 323 -67 140
-78 143 -130 40z"/>
<path d="M2970 3894 c-217 -30 -457 -109 -629 -207 -103 -59 -247 -167 -315
-235 l-49 -50 5 -59 c4 -44 24 -104 86 -248 94 -218 112 -251 147 -267 34 -15
60 0 105 60 164 218 417 359 730 408 91 14 353 19 415 9 181 -32 346 -76 464
-125 133 -54 161 -41 215 107 81 216 107 302 99 330 -4 16 -6 35 -5 44 3 17
-115 76 -246 123 -94 33 -281 81 -402 101 -136 24 -483 29 -620 9z"/>
<path d="M3217 2228 c-3 -18 -10 -53 -17 -77 -7 -28 -10 -112 -8 -221 3 -200
10 -221 75 -239 22 -6 141 -11 275 -11 l237 0 20 -26 c20 -25 21 -40 21 -214
0 -106 -5 -200 -11 -217 -7 -23 -21 -35 -52 -47 -191 -72 -459 -90 -744 -50
l-41 6 3 -73 c3 -64 10 -90 54 -189 29 -63 65 -146 81 -185 41 -96 64 -132
102 -156 30 -19 43 -20 154 -15 393 19 967 220 1025 358 20 46 21 1300 2 1320
-7 6 -13 25 -13 40 l0 28 -579 0 -579 0 -5 -32z"/>
</g>
</svg>
