<svg width="2465" height="614" viewBox="0 0 2465 614" fill="none" xmlns="http://www.w3.org/2000/svg">
<g filter="url(#filter0_d_66_5)">
<g filter="url(#filter1_d_66_5)">
<path d="M939.003 333.7H859.503L838.503 385H804.003L900.603 157.6H902.703L999.303 385H959.103L939.003 333.7ZM927.303 303.7L900.003 234.7L871.803 303.7H927.303ZM1114.27 252.4C1125.47 252.4 1135.77 255.1 1145.17 260.5C1154.57 265.9 1161.97 273.7 1167.37 283.9C1172.97 293.9 1175.77 305.7 1175.77 319.3C1175.77 333.3 1172.77 345.5 1166.77 355.9C1160.77 366.3 1152.67 374.3 1142.47 379.9C1132.47 385.5 1121.57 388.3 1109.77 388.3C1099.77 388.3 1090.87 386.5 1083.07 382.9C1075.27 379.3 1068.67 374.4 1063.27 368.2V385H1029.67V151H1063.27V271.6C1068.67 265.8 1075.77 261.2 1084.57 257.8C1093.57 254.2 1103.47 252.4 1114.27 252.4ZM1102.57 359.8C1113.57 359.8 1122.77 355.9 1130.17 348.1C1137.77 340.3 1141.57 330.6 1141.57 319C1141.57 311.6 1139.77 304.8 1136.17 298.6C1132.77 292.4 1128.07 287.6 1122.07 284.2C1116.27 280.6 1109.77 278.8 1102.57 278.8C1093.17 278.8 1084.87 281.2 1077.67 286C1070.67 290.8 1065.87 297.2 1063.27 305.2V333.4C1066.27 341.6 1071.17 348.1 1077.97 352.9C1084.77 357.5 1092.97 359.8 1102.57 359.8ZM1294.11 252.7C1305.91 252.7 1315.71 256.3 1323.51 263.5C1331.51 270.5 1335.61 279.6 1335.81 290.8V385H1302.21V302.8C1301.81 296.2 1299.81 291 1296.21 287.2C1292.81 283.4 1287.61 281.4 1280.61 281.2C1270.21 281.2 1261.61 285.7 1254.81 294.7C1248.21 303.7 1244.91 315 1244.91 328.6V385H1211.31V151H1244.31V279.7C1249.11 271.5 1255.71 265 1264.11 260.2C1272.71 255.2 1282.71 252.7 1294.11 252.7ZM1415.71 258.1V385H1382.11V258.1H1415.71ZM1380.61 212.8C1380.61 207.8 1382.61 203.6 1386.61 200.2C1390.61 196.6 1395.11 194.8 1400.11 194.8C1404.91 194.8 1409.21 196.6 1413.01 200.2C1417.01 203.6 1419.01 207.8 1419.01 212.8C1419.01 217.8 1417.01 222 1413.01 225.4C1409.21 228.8 1404.91 230.5 1400.11 230.5C1395.11 230.5 1390.61 228.8 1386.61 225.4C1382.61 222 1380.61 217.8 1380.61 212.8ZM1495.4 258.1V385H1461.8V258.1H1495.4ZM1460.3 212.8C1460.3 207.8 1462.3 203.6 1466.3 200.2C1470.3 196.6 1474.8 194.8 1479.8 194.8C1484.6 194.8 1488.9 196.6 1492.7 200.2C1496.7 203.6 1498.7 207.8 1498.7 212.8C1498.7 217.8 1496.7 222 1492.7 225.4C1488.9 228.8 1484.6 230.5 1479.8 230.5C1474.8 230.5 1470.3 228.8 1466.3 225.4C1462.3 222 1460.3 217.8 1460.3 212.8ZM1722.08 364.9C1716.08 370.5 1705.58 375.7 1690.58 380.5C1675.78 385.1 1662.18 387.4 1649.78 387.4C1626.78 387.4 1606.58 382.8 1589.18 373.6C1571.78 364.4 1558.38 351.8 1548.98 335.8C1539.58 319.6 1534.88 301.3 1534.88 280.9C1534.88 256.3 1539.88 235.2 1549.88 217.6C1560.08 200 1573.68 186.7 1590.68 177.7C1607.88 168.7 1626.68 164.2 1647.08 164.2C1659.68 164.2 1671.58 165.7 1682.78 168.7C1694.18 171.5 1704.18 175.3 1712.78 180.1L1701.38 212.5C1695.38 208.9 1687.38 205.8 1677.38 203.2C1667.58 200.6 1658.98 199.3 1651.58 199.3C1626.58 199.3 1606.88 206.2 1592.48 220C1578.08 233.8 1570.88 253.1 1570.88 277.9C1570.88 292.7 1574.18 305.8 1580.78 317.2C1587.58 328.4 1596.98 337.1 1608.98 343.3C1621.18 349.5 1635.08 352.6 1650.68 352.6C1657.68 352.6 1664.38 352 1670.78 350.8C1677.18 349.4 1682.58 347.5 1686.98 345.1V308.8H1645.88V275.2H1722.08V364.9ZM1901.14 258.1V385H1867.54V366.7C1862.94 372.1 1856.74 377.1 1848.94 381.7C1841.14 386.1 1832.04 388.3 1821.64 388.3C1809.44 388.3 1798.54 385.8 1788.94 380.8C1779.34 375.6 1771.74 368 1766.14 358C1760.54 348 1757.74 335.9 1757.74 321.7C1757.74 307.9 1760.64 295.8 1766.44 285.4C1772.24 274.8 1779.94 266.7 1789.54 261.1C1799.34 255.3 1810.04 252.4 1821.64 252.4C1842.24 252.4 1857.64 260 1867.84 275.2L1870.24 258.1H1901.14ZM1830.94 360.7C1840.14 360.7 1847.84 358.4 1854.04 353.8C1860.44 349 1864.94 342.3 1867.54 333.7V306.1C1865.14 298.3 1860.44 292 1853.44 287.2C1846.64 282.4 1838.74 280 1829.74 280C1819.14 280 1810.14 283.8 1802.74 291.4C1795.34 298.8 1791.64 308.3 1791.64 319.9C1791.64 327.5 1793.44 334.4 1797.04 340.6C1800.64 346.8 1805.44 351.7 1811.44 355.3C1817.44 358.9 1823.94 360.7 1830.94 360.7ZM1993.44 202.3V258.1H2026.44V284.5H1993.44V385H1959.84V284.5H1937.94V258.1H1959.84V202.3H1993.44ZM2105.35 202.3V258.1H2138.35V284.5H2105.35V385H2071.75V284.5H2049.85V258.1H2071.75V202.3H2105.35ZM2296.77 258.1L2214.87 445.9H2181.87L2211.57 379.6L2152.77 258.1H2190.57L2228.37 342.1L2266.17 258.1H2296.77Z" fill="black"/>
</g>
<g filter="url(#filter2_d_66_5)">
<path d="M342.139 367.524L310.303 444H258L404.448 105H407.632L554.08 444H493.136L462.664 367.524L444.926 322.354H444.746L403.539 219.938L360.787 322.801H361.052L342.139 367.524Z" fill="black"/>
<path d="M685.815 410.458C676.719 418.806 660.8 426.558 638.06 433.714C615.623 440.571 595.005 444 576.206 444C573.588 444 570.994 443.961 568.424 443.884L544.626 388.785C554.987 391.009 565.969 392.121 577.57 392.121C588.183 392.121 598.34 391.227 608.043 389.438C617.745 387.351 625.932 384.518 632.602 380.941V326.826H570.294V276.736H685.815V410.458Z" fill="black"/>
<path d="M486.609 131.387C471.366 139.322 457.927 149.499 446.29 161.918L446.586 161.798L470.925 218.149C475.812 209.309 481.95 201.408 489.338 194.446C511.169 173.873 541.034 163.587 578.935 163.587C590.154 163.587 603.191 165.525 618.048 169.401C633.209 173.277 645.337 177.898 654.433 183.265L671.716 134.964C658.678 127.809 643.518 122.144 626.235 117.97C609.255 113.497 591.215 111.261 572.113 111.261C541.186 111.261 512.685 117.97 486.609 131.387Z" fill="black"/>
</g>
</g>
<defs>
<filter id="filter0_d_66_5" x="-20" y="-16" width="2505" height="654" filterUnits="userSpaceOnUse" color-interpolation-filters="sRGB">
<feFlood flood-opacity="0" result="BackgroundImageFix"/>
<feColorMatrix in="SourceAlpha" type="matrix" values="0 0 0 0 0 0 0 0 0 0 0 0 0 0 0 0 0 0 127 0" result="hardAlpha"/>
<feOffset dy="4"/>
<feGaussianBlur stdDeviation="10"/>
<feColorMatrix type="matrix" values="0 0 0 0 0 0 0 0 0 0 0 0 0 0 0 0 0 0 0.2 0"/>
<feBlend mode="normal" in2="BackgroundImageFix" result="effect1_dropShadow_66_5"/>
<feBlend mode="normal" in="SourceGraphic" in2="effect1_dropShadow_66_5" result="shape"/>
</filter>
<filter id="filter1_d_66_5" x="800.003" y="151" width="1500.76" height="302.9" filterUnits="userSpaceOnUse" color-interpolation-filters="sRGB">
<feFlood flood-opacity="0" result="BackgroundImageFix"/>
<feColorMatrix in="SourceAlpha" type="matrix" values="0 0 0 0 0 0 0 0 0 0 0 0 0 0 0 0 0 0 127 0" result="hardAlpha"/>
<feOffset dy="4"/>
<feGaussianBlur stdDeviation="2"/>
<feColorMatrix type="matrix" values="0 0 0 0 0 0 0 0 0 0 0 0 0 0 0 0 0 0 0.25 0"/>
<feBlend mode="normal" in2="BackgroundImageFix" result="effect1_dropShadow_66_5"/>
<feBlend mode="normal" in="SourceGraphic" in2="effect1_dropShadow_66_5" result="shape"/>
</filter>
<filter id="filter2_d_66_5" x="248" y="99" width="447.815" height="359" filterUnits="userSpaceOnUse" color-interpolation-filters="sRGB">
<feFlood flood-opacity="0" result="BackgroundImageFix"/>
<feColorMatrix in="SourceAlpha" type="matrix" values="0 0 0 0 0 0 0 0 0 0 0 0 0 0 0 0 0 0 127 0" result="hardAlpha"/>
<feOffset dy="4"/>
<feGaussianBlur stdDeviation="5"/>
<feColorMatrix type="matrix" values="0 0 0 0 0 0 0 0 0 0 0 0 0 0 0 0 0 0 0.4 0"/>
<feBlend mode="normal" in2="BackgroundImageFix" result="effect1_dropShadow_66_5"/>
<feBlend mode="normal" in="SourceGraphic" in2="effect1_dropShadow_66_5" result="shape"/>
</filter>
</defs>
</svg>
